<svg width="48" height="47" viewBox="0 0 48 47" fill="none" xmlns="http://www.w3.org/2000/svg">
<path d="M19.7202 3.17172C21.0673 -0.974179 26.9327 -0.97417 28.2798 3.17173L30.8477 11.075C31.4501 12.9291 33.1779 14.1844 35.1274 14.1844L43.4374 14.1844C47.7967 14.1844 49.6091 19.7627 46.0824 22.325L39.3595 27.2095C37.7823 28.3554 37.1224 30.3865 37.7248 32.2406L40.2927 40.1439C41.6398 44.2898 36.8947 47.7373 33.3679 45.175L26.645 40.2905C25.0678 39.1446 22.9322 39.1446 21.355 40.2905L14.6321 45.175C11.1053 47.7373 6.36019 44.2898 7.70727 40.1439L10.2752 32.2406C10.8776 30.3865 10.2177 28.3554 8.64047 27.2095L1.91755 22.325C-1.60916 19.7627 0.203341 14.1844 4.5626 14.1844L12.8726 14.1844C14.8221 14.1844 16.5499 12.9291 17.1523 11.075L19.7202 3.17172Z" fill="#494646" fill-opacity="0.4"/>
</svg>
