<svg width="176" height="151" viewBox="0 0 176 151" fill="none" xmlns="http://www.w3.org/2000/svg">
<path d="M175.5 48.6875C175.5 103.375 94.4141 147.641 90.9609 149.469C90.0508 149.958 89.0335 150.215 88 150.215C86.9665 150.215 85.9492 149.958 85.0391 149.469C81.5859 147.641 0.5 103.375 0.5 48.6875C0.514475 35.8455 5.62235 23.5337 14.703 14.453C23.7837 5.37235 36.0955 0.264475 48.9375 0.25C65.0703 0.25 79.1953 7.1875 88 18.9141C96.8047 7.1875 110.93 0.25 127.062 0.25C139.904 0.264475 152.216 5.37235 161.297 14.453C170.378 23.5337 175.486 35.8455 175.5 48.6875Z" fill="#FF0000"/>
</svg>
